<?xml version="1.0" encoding="UTF-8"?>
<svg id="Livello_2" data-name="Livello 2" xmlns="http://www.w3.org/2000/svg" viewBox="0 0 624.38 651.8">
  <defs>
    <style>
      .cls-1 {
        fill: #a95a3f;
      }

      .cls-1, .cls-2, .cls-3, .cls-4 {
        stroke-width: 0px;
      }

      .cls-2 {
        fill: #2c3e48;
      }

      .cls-3 {
        fill: #a8583d;
      }

      .cls-4 {
        fill: #2b3e48;
      }
    </style>
  </defs>
  <g id="Livello_1-2" data-name="Livello 1">
    <g>
      <path class="cls-3" d="M300.38,0h16.03l14.77.42,15.61,1.27,10.55,1.27,15.61,3.38,18.14,4.22,10.12,2.95,16.88,5.48,11.39,4.64,8.02,3.38,6.75,3.38,11.39,5.48,5.91,3.38,7.59,4.22,3.38,2.95-2.11,2.11-7.17,5.48-7.17,4.22-5.48,3.38-9.7,5.06-9.28,4.22-15.19,5.91-25.73,8.02-22.78,5.91-17.3,4.64-11.81,3.38-22.36,6.75-11.39,4.22-10.97,4.22-14.77,6.33-9.28,4.64-7.17,3.38-6.75,3.8-9.28,5.06-4.22,2.95-6.75,3.8-6.75,4.64-7.17,5.06-5.91,4.22-6.75,5.06-7.59,5.48-4.64,3.8-8.44,6.33-5.91,4.64-5.06,4.64-4.22,3.38-4.22,3.8-3.38,2.95-5.48,5.06-4.64,4.64-2.95,3.38-4.22,4.64-2.95,3.38-3.8,4.64-4.64,5.06-3.8,4.64-5.06,5.91-3.38,4.22-6.75,8.86-5.91,8.02-3.38,5.06-5.48,7.59-2.95,4.64-4.64,7.17-4.22,6.75-2.53,4.64-5.91,10.55-5.91,11.39-4.64,10.12-4.64,10.97-4.22,11.39-3.8,11.39-3.8,16.88-2.53,15.19-1.27,12.66v19.41l.84,9.28v7.59l8.86,8.86,4.64,3.8,5.91,4.64,8.44,5.91,9.28,5.48,7.59,4.22,16.03,6.75,8.02,2.53,18.56,4.22,12.23,2.11,4.64.42h21.94l8.44-.84,10.97-2.11,12.23-2.53,17.3-3.38,15.19-3.8,13.5-1.69,9.7-.84,12.23-.42h5.91l9.7.42,9.7,1.27,6.33,1.69,8.02,4.22,4.64,3.38,3.8,4.22,2.53,3.8.84,2.53-.42,3.38-2.11,3.8-3.8,4.64-3.38,2.95-8.44,5.06-8.02,4.64-11.81,5.91-6.75,3.8-4.64,2.53-6.75,5.06-3.38,2.95-2.53,4.22-1.27,3.8v6.33l2.11,5.06,2.95,3.38,5.91,3.8,4.22,1.69,6.33,1.27,9.7.42,10.97-.84,9.7-1.69,6.75-2.53,11.39-5.06,5.48-2.95,8.86-5.91,4.64-3.8,5.48-4.64,6.33-6.33,7.59-9.28,5.06-7.59,4.22-7.17,5.06-11.39,2.11-4.64,2.53-7.59,2.11-8.02,1.27-1.69h1.69l.84,2.11.42,5.48v8.44l-.84,10.97-2.11,8.86-5.06,15.61-3.38,6.75-3.8,6.75-3.8,5.48-4.22,5.91-3.8,4.22-3.8,4.64-9.7,9.7-4.64,3.8-6.75,5.48-4.22,2.95-6.33,4.22-10.12,5.48-8.86,4.22-14.34,5.48-9.28,2.53-18.98,3.8-10.97,1.69-10.12.84-9.28.42h-24.47l-14.34-.84-11.39-1.69-21.94-4.64-13.92-4.64-11.81-4.64-16.03-8.02-9.28-5.91-5.91-4.22-5.48-4.22-5.91-5.06-5.48-5.06-6.33-5.91-7.17-7.17-2.95-3.38-5.48-5.91-3.8-4.64-4.22-5.06-2.95-3.8-10.97-15.19-4.22-6.75-7.17-11.81-5.91-10.97-3.38-6.33-7.59-17.3-6.33-16.88-3.8-11.81-5.06-18.14-2.53-10.97-5.91-29.95-1.69-13.08-1.69-24.89-1.27-12.23v-1.69h.84l1.27,2.53,2.53,13.92,2.11,8.02,4.22,14.77,2.95,10.12,6.75,17.3,5.91,12.66,5.06,9.7,3.8,6.33,3.38,5.06,3.8,5.48,3.38,5.48,2.53,2.53-2.11-13.08v-24.89l.84-9.7,1.69-11.81,2.11-10.97,3.38-10.97,5.06-15.19,2.53-6.75,3.8-8.86,3.38-6.75,5.06-9.7,5.48-9.7,3.8-6.75,2.95-4.64,3.38-5.91,4.64-7.17,3.8-5.91,2.95-4.64,2.95-4.22,5.06-7.17,5.06-6.75,8.44-10.97,3.38-4.22,4.64-5.48,3.8-4.22,3.8-4.64,4.64-5.06,3.8-4.64,5.06-5.48,3.8-4.64,3.8-3.8,2.95-3.38,5.91-6.33,2.95-3.38,4.64-5.48,3.38-4.64,4.22-5.48,3.38-4.64,5.91-8.44,8.44-12.66,3.8-5.91,5.06-8.44,4.22-7.17,4.22-8.02,2.11-3.38,4.64-9.7,3.8-8.02,6.33-16.45,3.38-12.23,4.22-18.56,1.27-10.12.42-8.02.42-14.77,2.11-2.11,7.59-2.11,9.28-1.69,14.34-1.69,7.17-.42,14.77-.42Z"/>
      <path class="cls-3" d="M440.47,235.83h6.68s.05,0,.07,0l10.47.84s.05,0,.08.01l7.07,1.25s.08.02.12.03c0,0,32.6,4.19,70.72,23.74,31.14,15.97,53.26,53.04,53.28,53.07l5,6.67s.03.04.04.07l3.35,5.45,4.61,8.39s.03.07.05.1l3.77,9.63s.01.03.02.05l4.2,13.01s.02.06.02.1l1.67,8.35s0,.05.01.07l.84,7.11s0,.03,0,.05l.42,6.7s0,.04,0,.05v10.48s0,.05,0,.07l-1.26,15.12s0,.05,0,.07l-1.68,10.06s0,.04-.01.06l-5.05,21.46s0,.03-.01.05l-3.36,11.34s-.01.03-.02.05l-4.63,12.63-4.21,10.53s-.01.03-.02.04l-5.47,11.79-5.48,10.55-4.64,8.02-5.48,8.86-3.8,5.48-4.64,6.75-5.91,8.02-4.22,5.48-3.8,4.64-3.8,4.22-2.95,3.38-4.64,5.06-2.93,3.35s-.03.03-.04.04l-11.77,11.77s-.03.03-.04.04l-3.35,2.93-4.64,4.22-4.64,3.8-5.88,5.04s-.03.03-.05.04l-7.99,5.89-6.33,4.64-6.33,4.22-8.44,5.06-6.7,4.19s-.06.04-.1.05l-5.43,2.51h-.84v-.84l4.64-4.64h.84l.78-1.56c.04-.08.1-.16.16-.22l2.82-2.82s.04-.04.06-.06l3.77-4.61,3.38-4.22,4.22-5.48,3.38-4.64,6.33-9.7,6.32-10.53s.02-.03.02-.04l4.62-8.81s.02-.03.02-.05l5.46-12.18s.02-.04.02-.06l3.79-10.52,3.78-11.34s.02-.06.03-.1l3.36-15.98,2.53-14.73s0-.05,0-.07l1.26-13.85s0-.05,0-.08v-16.37s0-.06,0-.09l-1.26-11.73s0-.04,0-.07l-3.36-18.07s-.01-.05-.02-.08l-2.51-8.77s-.02-.06-.03-.09l-5.88-14.27s-.02-.04-.03-.06l-2.93-5.85s-.02-.03-.03-.05l-4.2-7.15-4.2-6.72s-.02-.04-.04-.05l-5.86-7.95s-.04-.05-.06-.07l-5.03-5.45-2.92-3.34s-.05-.05-.07-.07l-4.18-3.76-4.61-4.19s-.04-.04-.06-.05l-6.72-5.04-4.2-2.94s-.03-.02-.05-.03l-11.75-7.13s-.05-.03-.08-.04l-6.29-2.93-10.08-4.62s-.07-.03-.1-.04l-6.7-2.09-6.33-1.69-11.75-3.78s-.08-.02-.12-.03l-5-.83-1.05-.31-.94-.22-7.27-.73s-.04,0-.05-.01l-6.23-1.66s-.1-.03-.14-.05l-11.66-5.41c-.06-.03-.11-.06-.16-.1l-5.31-4.08c-.07-.05-.12-.11-.17-.18l-3.26-4.48s-.05-.08-.07-.12l-2.89-5.77s-.04-.1-.06-.15l-1.66-5.8s-.01-.05-.02-.07l-.4-1.99c-.01-.06-.02-.11-.02-.17v-8.66c0-.07,0-.15.03-.22l2.49-9.54s.02-.07.03-.1l2.48-6.19c.02-.06.05-.11.08-.16l3.31-4.96s.03-.04.04-.05l4.59-5.84s.04-.05.07-.08l6.25-6.25s.05-.05.08-.07l5.41-4.16s.04-.03.06-.04l5.85-3.76s.03-.02.04-.03l6.67-3.75s.08-.04.12-.06l7.95-2.93,9.21-3.35s.09-.03.14-.04l9.17-1.67s.06,0,.08-.01l10.05-.84s.05,0,.07,0Z"/>
      <path class="cls-3" d="M393.61,353.11h12.66l10.97.84,6.75,1.27,15.19,5.06,8.86,4.22,5.48,3.38,6.75,4.22,7.17,5.48,4.22,3.8,5.48,5.06,3.8,4.64,4.22,5.06,4.64,6.75,4.22,6.75,3.38,7.17,3.38,8.02,2.53,8.02,3.38,14.77,1.27,10.97.42,6.33v13.08l-1.27,12.66-2.95,16.03-2.53,10.97-2.95,8.44-4.64,13.08-5.48,11.81-5.06,9.28-5.48,8.86-5.48,7.59-3.8,5.06-3.38,4.22-5.06,5.91-3.38,3.38-2.53,2.95-3.38,2.95-5.91,5.48-5.91,4.64-4.64,3.8-13.92,9.28-11.39,6.33-6.75,3.38-8.86,3.8-5.06,2.11-12.23,3.8-13.92,3.8-12.66,2.11-10.12.84-13.92.84-5.06.42v-.84l6.75-2.11,6.33-2.11,14.34-6.75,11.81-7.17,8.02-5.91,4.22-2.95,3.8-2.95,5.48-4.64,5.48-5.06,5.48-5.48,3.38-4.22,3.8-5.06,6.75-10.12,3.38-5.91,3.38-7.17,2.95-5.91,4.64-13.08,2.95-8.02,2.53-10.97,2.11-13.92.42-2.53v-17.3l-2.53-17.3-2.53-10.55-2.11-5.48-6.33-12.66-5.48-7.59-3.38-4.22-4.22-4.22-7.17-5.06-4.64-2.95-8.86-3.38-6.75-3.38-7.59-2.95-3.38-2.53-5.91-5.48-3.38-5.48-3.38-8.44-1.27-5.06-.42-5.91,1.69-8.44,2.53-6.75,2.95-5.48,3.8-4.22,4.22-2.95,6.75-3.38,6.33-2.53,5.91-1.27,10.12-.84Z"/>
      <path class="cls-4" d="M300.38,0h16.03l14.77.42,15.61,1.27,10.55,1.27,15.61,3.38,18.14,4.22,10.12,2.95,16.88,5.48,11.39,4.64,8.02,3.38,6.75,3.38,11.39,5.48,5.91,3.38,7.59,4.22,3.38,2.95-2.11,2.11-7.17,5.48-7.17,4.22-5.48,3.38-9.7,5.06-9.28,4.22-15.19,5.91-25.73,8.02-22.78,5.91-17.3,4.64-11.81,3.38-22.36,6.75-11.39,4.22-10.97,4.22-14.77,6.33-9.28,4.64-7.17,3.38-6.75,3.8-9.28,5.06-4.22,2.95-6.75,3.8-6.75,4.64-7.17,5.06-5.91,4.22-6.75,5.06-7.59,5.48-4.64,3.8-8.44,6.33-5.91,4.64-5.06,4.64-4.22,3.38-4.22,3.8-3.38,2.95-5.48,5.06-4.64,4.64-2.95,3.38-4.22,4.64-2.95,3.38-3.8,4.64-4.64,5.06-3.8,4.64-5.06,5.91-3.38,4.22-6.75,8.86-5.91,8.02-3.38,5.06-5.48,7.59-2.95,4.64-4.64,7.17-4.22,6.75-2.53,4.64-5.91,10.55-5.91,11.39-4.64,10.12-4.64,10.97-4.22,11.39-3.8,11.39-3.8,16.88-2.53,15.19-1.27,12.66v19.41l.84,9.28v7.59l-2.8-2.73-1.84-1.91-2.11-13.08v-24.89l.84-9.7,1.69-11.81,2.11-10.97,3.38-10.97,5.06-15.19,2.53-6.75,3.8-8.86,3.38-6.75,5.06-9.7,5.48-9.7,3.8-6.75,2.95-4.64,3.38-5.91,4.64-7.17,3.8-5.91,2.95-4.64,2.95-4.22,5.06-7.17,5.06-6.75,8.44-10.97,3.38-4.22,4.64-5.48,3.8-4.22,3.8-4.64,4.64-5.06,3.8-4.64,5.06-5.48,3.8-4.64,3.8-3.8,2.95-3.38,5.91-6.33,2.95-3.38,4.64-5.48,3.38-4.64,4.22-5.48,3.38-4.64,5.91-8.44,8.44-12.66,3.8-5.91,5.06-8.44,4.22-7.17,4.22-8.02,2.11-3.38,4.64-9.7,3.8-8.02,6.33-16.45,3.38-12.23,4.22-18.56,1.27-10.12.42-8.02.42-14.77,2.11-2.11,7.59-2.11,9.28-1.69,14.34-1.69,7.17-.42,14.77-.42Z"/>
      <path class="cls-4" d="M486.84,56.53l2.11.42,5.48,3.8,7.59,5.91,4.22,3.38,5.48,4.64,6.33,5.48,6.75,6.33,5.48,5.06,6.75,7.17,3.8,4.22,4.22,4.64,3.8,4.64,5.06,5.91,3.38,4.22,5.91,8.02,6.75,9.7,5.48,8.44,5.48,8.86,5.06,8.86,5.06,9.7,4.64,9.28,6.75,16.03,3.8,10.55,5.06,15.19,7.17,27,2.53,12.23,3.38,22.36v6.75h-1.27l-1.69-4.64-2.95-11.81-5.48-13.92-3.38-8.02-6.33-12.23-6.75-10.97-4.22-6.33-5.91-8.02-4.64-5.48-3.8-4.22-4.64-5.06-6.33-5.91-5.91-4.64-5.48-4.22-9.7-6.75-10.97-6.33-8.02-4.22-6.75-3.38-4.64-2.11-11.81-4.22-10.55-3.8-31.22-6.75-8.86-1.27-28.27-1.69-16.03-.42h-21.52l-32.91.84-28.69,1.27-21.94,2.53-16.45,2.11-28.69,2.95-11.39,1.69-6.75,1.27h-4.22l1.69-1.69,10.55-5.91,6.75-4.22,10.97-6.75,10.55-5.06,6.75-3.38,9.7-4.22,7.59-3.38,10.55-3.8,8.44-3.38,12.66-3.8,11.81-3.8,16.45-4.22,13.08-3.8,15.19-3.8,12.66-3.8,10.97-2.95,10.97-3.8,11.39-4.22,11.39-5.06,8.44-3.8,13.92-7.17,8.44-5.48,5.48-4.22,4.22-3.38Z"/>
      <path class="cls-4" d="M225.7,11.39l.42,1.27-2.53,14.77-1.69,10.12-2.53,10.12-6.75,20.67-5.06,12.66-2.95,7.17-5.91,12.66-8.02,15.61-3.38,5.48-7.59,12.66-4.22,6.75-2.95,4.64-8.44,12.66-4.64,6.75-5.91,8.02-3.38,4.22-4.64,5.48-2.95,3.8-4.22,4.64-2.95,3.38-2.11,2.53-.65.62-1.04,1.07-2.95,2.95-2.95,3.38-5.91,5.91h-.42v-3.38l4.64-12.23,4.22-10.12,5.91-13.5,4.22-9.7,3.38-6.33,4.64-10.55,3.38-6.33,3.8-8.86,5.06-9.7,9.28-18.56,3.38-7.17,3.38-6.75,3.38-7.59,3.8-7.17,5.91-15.61-.84-.42-1.69,1.69-2.95,5.06-5.48,7.59-3.8,5.91-4.22,5.91-6.75,10.97-4.22,7.59-4.22,7.17-3.8,7.17-2.53,4.22-5.06,9.7-6.33,12.23-5.06,10.55-6.75,15.61-4.64,12.66-2.53,6.75-3.38,10.12-2.53,12.23-.84,4.64-1.27,2.53-1.69-1.69-.84-5.91-.42-8.02v-21.94l.42-12.23,1.69-10.97,3.8-19.41,2.11-10.12,2.53-8.44,5.06-15.19,3.8-8.44,3.8-8.02,5.06-8.86,4.22-6.75,4.64-6.75,4.64-5.48,2.95-3.38,3.8-4.22,7.59-7.59,11.81-9.28,6.33-4.22,6.33-3.8,6.75-3.38,10.55-5.06,16.03-5.48,5.91-1.69Z"/>
      <path class="cls-2" d="M84.8,100.41l1.69.42.84,1.69,2.11,17.3.84,13.08v27.84l-.42,13.08-1.27,14.77-2.11,13.5-2.95,14.34-2.11,10.97-3.38,13.08-2.53,8.02-3.8,13.08-7.17,21.09-4.64,11.81-8.02,20.25-3.8,10.55-2.53,4.64h-.42v-5.48l1.69-10.55,2.95-28.27,2.95-21.09,3.38-18.14,4.22-27.84,3.8-22.36,2.11-21.09.42-7.17-.42-.42-3.38,11.39-4.22,15.19-6.33,26.58-5.48,27-2.95,14.34-3.8,27.84-1.69,14.77-.84,10.55v12.66l.84,8.44-1.27-.42-2.95-7.17-4.64-16.45-2.11-10.12-1.69-12.23-1.69-14.77-.42-5.48v-25.73l2.53-24.05,2.53-14.34,2.53-9.28,4.64-15.61,2.53-6.75,5.91-14.34,5.06-10.55,4.64-8.44,5.06-8.44,6.75-10.12,7.59-9.28,4.64-5.48,5.06-5.48,1.69-1.27Z"/>
      <path class="cls-2" d="M308.39,172.12h22.78l14.77.84,16.88,2.11,21.09,5.06,10.55,2.95,5.06,2.53v1.69l-7.17,4.22-6.75,4.22-7.59,4.22-8.02,4.22-6.75,2.95-7.17,3.38-9.28,3.38-9.7,3.8-11.81,3.38-15.19,4.22-15.19,2.95-14.77,2.53-13.92,2.11-8.86.84-9.28.42h-37.55l-19.41-.84-17.3-1.27-1.27-.42v-1.27l9.28-2.95,8.02-2.11,8.02-2.53,14.34-3.8,10.12-2.53,8.02-2.11,24.05-5.06,11.39-2.95,18.56-3.8,18.98-4.64,16.45-3.38,8.86-2.95,2.11-.84v-.84h-5.91l-13.08,1.27-41.77,5.06-13.92,2.11-19.41,4.22-16.45,3.38-18.56,5.06-10.97,2.95-23.62,8.44-2.53,1.27-.84-.42,2.95-2.53,5.06-3.38,4.22-2.95,6.33-3.8,6.33-4.22,8.44-5.06,6.75-3.8,10.55-5.06,6.33-2.95,12.23-4.22,7.17-2.53,12.66-2.95,18.56-4.64,14.77-1.69,11.81-.84,10.55-.42Z"/>
      <path class="cls-2" d="M222.75,251.02h26.58l14.77,1.27,10.12,1.69,8.86,2.53,1.27.84-.84,1.69-4.64,4.22-5.91,4.64-7.59,5.48-10.12,6.75-13.5,8.02-12.23,6.33-9.7,4.64-11.39,5.06-20.25,7.59-21.94,6.33-9.28,2.11-11.39,1.69-12.23.84-18.56.84h-11.39l-1.27-.42v-1.27l7.17-3.38,6.75-3.38,11.39-4.64,8.44-3.8,10.12-3.8,10.55-4.22,10.97-3.8,10.97-4.22,8.86-2.95,8.02-3.38,18.14-6.33,8.44-3.38,8.02-2.95,1.69-1.69-12.23,2.95-18.98,3.38-12.66,2.95-14.77,3.8-12.23,3.8-19.83,6.75-8.44,3.38-10.12,3.8-12.23,5.48-4.64,2.53-5.48,3.38h-1.69l.84-1.69,2.95-3.38,2.11-2.11,4.22-3.8,6.75-6.75,3.38-2.95,6.75-5.48,6.33-4.64,9.7-6.33,9.7-5.06,9.7-4.22,11.81-4.64,10.12-2.95,15.61-4.22,10.97-1.69,13.5-1.27Z"/>
      <path class="cls-2" d="M181.83,330.33h10.12l13.92.42,6.75,1.27,8.44,2.53,1.69,1.27-.84,1.69-5.48,5.48-9.28,7.59-5.48,4.22-6.33,4.64-8.86,5.91-8.02,4.64-8.86,5.06-8.44,3.8-6.33,3.38-11.81,4.64-8.86,3.38-13.5,3.38-12.23,2.53-6.75.84-5.48.42h-4.64l-18.14-1.69-2.53-.84.84-1.69,3.38-1.69,5.06-2.11,7.17-3.38,8.02-3.38,11.39-5.06,24.47-10.12,10.97-4.64,17.72-7.59,6.75-2.53,6.33-1.69,2.11-.84v-1.27l-11.39,2.11-10.12,2.11-9.28,2.11-18.56,5.48-13.92,4.64-13.92,5.06-19.41,8.44-5.91,3.8-2.11,1.69h-.84l.84-2.53,3.38-4.22,3.8-4.22,9.28-9.28,5.91-4.64,5.48-4.22,5.48-3.38,9.28-5.06,9.7-4.22,8.02-3.38,13.5-3.38,18.14-4.22,7.17-.84,12.23-.42Z"/>
      <path class="cls-1" d="M414.28,511.73h.42v4.22l-2.11,13.5-2.95,12.23-5.06,15.19-4.22,10.12-3.8,7.17-4.22,7.17-6.33,8.44-3.8,4.64-3.8,4.22-1.69,2.11-2.95,2.53-2.11,2.11-3.8,3.38-5.06,3.8-2.11,1.69-7.59,5.48-8.02,5.48-14.34,7.59-8.86,3.8-10.12,3.8-17.72,4.22-13.5,2.53-3.38.42h-16.45l-8.86-1.27-16.88-3.38-11.39-2.95-8.02-2.95-5.48-2.11-7.59-2.53-1.27-1.69h3.38l5.06,1.27,12.66.42h37.12l8.86-.84,13.92-2.53,17.3-3.8,11.39-3.8,8.02-2.95,8.44-3.38,12.66-6.33,10.12-6.33,5.91-4.22,7.17-5.48,2.95-2.95,3.38-2.95,11.39-11.39,2.95-3.38,4.22-5.06,4.22-5.91,3.8-6.33,4.64-8.02,3.38-6.33,3.8-8.44,2.95-8.86,2.11-9.28,1.27-2.11Z"/>
    </g>
  </g>
</svg>